<svg width="80" height="27" viewBox="0 0 80 27" fill="none" xmlns="http://www.w3.org/2000/svg">
<path d="M24.1685 5.52935H26.5441V26.3209H24.1685V5.52935ZM24.1685 3.53443H26.5465V1.08089H24.1685V3.53443ZM0 26.3209H15.375V24.0462H2.37555V14.2221H13.0331V11.9474H2.38035L2.37555 2.27467H15.375V0H0V26.3209ZM20.281 23.5658C19.988 23.2223 19.8391 22.7732 19.8391 22.2231V0.00480132H17.4635V22.2231C17.4635 23.3953 17.8478 24.3705 18.6165 25.1511C19.3851 25.9318 20.3483 26.3233 21.5012 26.3233H22.0777V24.0486H21.5012C21.0064 24.0462 20.5981 23.8877 20.281 23.5658ZM54.5726 5.52215C49.3627 5.52215 45.1401 10.1772 45.1401 15.9203C45.1401 21.6634 49.3627 26.3185 54.5726 26.3185C58.6248 26.3185 62.0788 23.501 63.4143 19.5473H60.8274C59.6336 22.2015 57.1788 23.8997 54.5726 23.8997C50.9168 23.8997 47.5589 20.5537 47.5589 15.9179C47.5589 11.2821 50.9144 7.93613 54.5726 7.93613C57.7673 7.93613 60.7313 10.4894 61.4303 14.2245H50.4604V16.6433H63.9812C63.9956 16.4031 64.0028 16.1605 64.0028 15.9179C64.0052 10.1796 59.7825 5.52215 54.5726 5.52215ZM40.5127 15.3318C39.6528 15.0148 38.7136 14.7337 37.6952 14.4839C36.6768 14.2341 35.7376 14.0324 34.8777 13.8738C34.0178 13.7153 33.2924 13.3982 32.7063 12.925C32.1394 12.4278 31.8584 11.7601 31.8584 10.9242C31.8584 10.0427 32.2667 9.29566 33.081 8.68555C33.9169 8.05143 34.9137 7.73677 36.0667 7.73677C37.2436 7.73677 38.2381 8.07545 39.0547 8.75521C39.8906 9.43256 40.311 10.2925 40.311 11.3325H42.6529C42.6529 9.65835 42.0092 8.27962 40.7193 7.19392C39.4294 6.08661 37.8802 5.53176 36.0691 5.53176C34.258 5.53176 32.6967 6.05299 31.3852 7.09304C30.0737 8.1331 29.418 9.41095 29.418 10.9266C29.418 12.1468 29.7014 13.1436 30.2659 13.9123C30.8544 14.6809 31.5774 15.2021 32.4373 15.4735C33.2972 15.745 34.2364 15.9948 35.2548 16.2206C36.2732 16.4463 37.2124 16.6505 38.0723 16.8307C38.9322 17.0108 39.6456 17.3951 40.2101 17.9836C40.7986 18.5721 41.0916 19.3527 41.0916 20.3231C41.0916 21.3632 40.5944 22.2567 39.5976 23.0013C38.6008 23.7484 37.4262 24.1207 36.0667 24.1207C34.6855 24.1207 33.499 23.7363 32.5021 22.9677C31.5293 22.1775 31.0417 21.1806 31.0417 19.9821H28.6325C28.6325 21.858 29.3459 23.3857 30.7703 24.5602C32.2187 25.7372 33.9842 26.3233 36.0643 26.3233C38.1468 26.3233 39.9122 25.7588 41.3582 24.6275C42.8066 23.4745 43.5296 22.0382 43.5296 20.3207C43.5296 19.0093 43.2342 17.9356 42.6481 17.0997C42.086 16.2374 41.3726 15.6489 40.5127 15.3318Z" fill="white"/>
<path fill-rule="evenodd" clip-rule="evenodd" d="M68.1203 16.6698L69.0818 13.9532H74.0143L74.9757 16.6698H76.893L72.7262 5.49438H70.3698L66.203 16.6698H68.1203ZM80 16.6698V5.49438H78.1647V16.6698H80ZM71.548 6.24418L69.3046 12.5777L69.3046 12.5777L71.548 6.24417L71.548 6.24418ZM69.6529 12.3316L71.548 6.9814L73.4431 12.3316H69.6529ZM79.7538 5.74054H79.7538V16.4236L79.7538 16.4236V5.74054Z" fill="white"/>
</svg>
