<svg width="90" height="30" viewBox="0 0 90 30" fill="none" xmlns="http://www.w3.org/2000/svg">
<path d="M27.1896 6.41388H29.8621V29.8043H27.1896V6.41388ZM27.1896 4.1696H29.8648V1.40936H27.1896V4.1696ZM0 29.8043H17.2969V27.2453H2.67249V16.1932H14.6623V13.6342H2.6779L2.67249 2.75237H17.2969V0.193359H0V29.8043ZM22.8162 26.7049C22.4865 26.3185 22.3189 25.8132 22.3189 25.1943V0.198761H19.6464V25.1943C19.6464 26.513 20.0788 27.6101 20.9435 28.4884C21.8082 29.3666 22.8918 29.807 24.1889 29.807H24.8374V27.248H24.1889C23.6322 27.2453 23.1728 27.067 22.8162 26.7049ZM61.3942 6.40577C55.5331 6.40577 50.7826 11.6427 50.7826 18.1037C50.7826 24.5647 55.5331 29.8016 61.3942 29.8016C65.9529 29.8016 69.8387 26.6319 71.3411 22.1841H68.4308C67.0878 25.17 64.3261 27.0805 61.3942 27.0805C57.2814 27.0805 53.5037 23.3163 53.5037 18.101C53.5037 12.8857 57.2787 9.12151 61.3942 9.12151C64.9882 9.12151 68.3227 11.994 69.1091 16.1959H56.768V18.9171H71.9788C71.9951 18.6469 72.0032 18.3739 72.0032 18.101C72.0059 11.6454 67.2553 6.40577 61.3942 6.40577ZM45.5768 17.4417C44.6094 17.085 43.5529 16.7688 42.4071 16.4878C41.2614 16.2067 40.2048 15.9798 39.2374 15.8014C38.27 15.6231 37.4539 15.2664 36.7946 14.734C36.1569 14.1747 35.8407 13.4235 35.8407 12.4831C35.8407 11.4914 36.3001 10.651 37.2161 9.96461C38.1565 9.25122 39.2779 8.89723 40.575 8.89723C41.8991 8.89723 43.0178 9.27824 43.9366 10.043C44.877 10.805 45.3498 11.7724 45.3498 12.9425H47.9845C47.9845 11.059 47.2603 9.50793 45.8092 8.28652C44.3581 7.04079 42.6152 6.41658 40.5777 6.41658C38.5402 6.41658 36.7838 7.00297 35.3084 8.17303C33.833 9.34309 33.0953 10.7807 33.0953 12.4858C33.0953 13.8585 33.4141 14.9799 34.0491 15.8446C34.7112 16.7094 35.5246 17.2957 36.492 17.6011C37.4593 17.9064 38.5159 18.1875 39.6617 18.4415C40.8074 18.6955 41.864 18.9252 42.8314 19.1278C43.7988 19.3305 44.6013 19.7629 45.2363 20.4249C45.8984 21.087 46.2281 21.9652 46.2281 23.0569C46.2281 24.227 45.6687 25.2322 44.5473 26.0699C43.4259 26.9103 42.1045 27.3291 40.575 27.3291C39.0212 27.3291 37.6863 26.8968 36.5649 26.032C35.4705 25.143 34.922 24.0216 34.922 22.6732H32.2116C32.2116 24.7836 33.0142 26.5022 34.6166 27.8236C36.246 29.1477 38.2322 29.807 40.5723 29.807C42.9151 29.807 44.9013 29.172 46.528 27.8993C48.1574 26.6022 48.9708 24.9863 48.9708 23.0542C48.9708 21.5788 48.6384 20.3709 47.9791 19.4305C47.3468 18.4604 46.5442 17.7984 45.5768 17.4417Z" fill="black"/>
<path fill-rule="evenodd" clip-rule="evenodd" d="M76.6353 18.9468L77.717 15.8907H83.2661L84.3477 18.9468H86.5047L81.817 6.37451H79.1661L74.4784 18.9468H76.6353ZM90 18.9468V6.37451H87.9353V18.9468H90ZM80.4915 7.21804L77.9677 14.3433L77.9676 14.3433L80.4915 7.21802L80.4915 7.21804ZM78.3595 14.0663L80.4915 8.04741L82.6235 14.0663H78.3595ZM89.7231 6.65143H89.7231V18.6699L89.7231 18.6699V6.65143Z" fill="black"/>
</svg>
